<svg xmlns="http://www.w3.org/2000/svg" viewBox="0 0 100 100">
  <defs>
    <linearGradient id="shellGrad" x1="0%" y1="0%" x2="100%" y2="100%">
      <stop offset="0%" style="stop-color:#f59e0b"/>
      <stop offset="50%" style="stop-color:#d97706"/>
      <stop offset="100%" style="stop-color:#b45309"/>
    </linearGradient>
    <linearGradient id="bodyGrad" x1="0%" y1="0%" x2="100%" y2="100%">
      <stop offset="0%" style="stop-color:#84cc16"/>
      <stop offset="100%" style="stop-color:#65a30d"/>
    </linearGradient>
  </defs>
  <!-- Shell -->
  <ellipse cx="55" cy="45" rx="30" ry="28" fill="url(#shellGrad)"/>
  <path d="M55 20 Q75 35 65 55 Q55 45 55 20" fill="#fbbf24" opacity="0.6"/>
  <path d="M40 35 Q55 40 50 60" stroke="#92400e" stroke-width="2" fill="none"/>
  <path d="M50 30 Q65 35 60 55" stroke="#92400e" stroke-width="2" fill="none"/>
  <!-- Body -->
  <ellipse cx="35" cy="70" rx="28" ry="12" fill="url(#bodyGrad)"/>
  <ellipse cx="15" cy="65" rx="8" ry="6" fill="url(#bodyGrad)"/>
  <!-- Eye stalks -->
  <line x1="18" y1="60" x2="12" y2="48" stroke="#65a30d" stroke-width="3" stroke-linecap="round"/>
  <line x1="22" y1="58" x2="20" y2="46" stroke="#65a30d" stroke-width="3" stroke-linecap="round"/>
  <!-- Eyes -->
  <circle cx="12" cy="46" r="4" fill="#1e293b"/>
  <circle cx="20" cy="44" r="4" fill="#1e293b"/>
  <circle cx="13" cy="45" r="1.5" fill="white"/>
  <circle cx="21" cy="43" r="1.5" fill="white"/>
</svg>

